<svg xmlns="http://www.w3.org/2000/svg" xmlns:xlink="http://www.w3.org/1999/xlink" width="1024" zoomAndPan="magnify" viewBox="0 0 768 767.999994" height="1024" preserveAspectRatio="xMidYMid meet" version="1.0"><defs><linearGradient x1="0" gradientTransform="matrix(0.75, 0, 0, 0.75, 0.000003, 0.00002)" y1="0" x2="1023.999957" gradientUnits="userSpaceOnUse" y2="1023.999957" id="2710ad7bcb"><stop stop-opacity="1" stop-color="rgb(57.249451%, 3.138733%, 3.138733%)" offset="0"/><stop stop-opacity="1" stop-color="rgb(57.415771%, 3.44696%, 3.326416%)" offset="0.00390625"/><stop stop-opacity="1" stop-color="rgb(57.583618%, 3.755188%, 3.515625%)" offset="0.0078125"/><stop stop-opacity="1" stop-color="rgb(57.749939%, 4.06189%, 3.703308%)" offset="0.0117188"/><stop stop-opacity="1" stop-color="rgb(57.917786%, 4.370117%, 3.892517%)" offset="0.015625"/><stop stop-opacity="1" stop-color="rgb(58.084106%, 4.678345%, 4.0802%)" offset="0.0195312"/><stop stop-opacity="1" stop-color="rgb(58.250427%, 4.986572%, 4.269409%)" offset="0.0234375"/><stop stop-opacity="1" stop-color="rgb(58.416748%, 5.2948%, 4.457092%)" offset="0.0273438"/><stop stop-opacity="1" stop-color="rgb(58.584595%, 5.603027%, 4.646301%)" offset="0.03125"/><stop stop-opacity="1" stop-color="rgb(58.750916%, 5.909729%, 4.833984%)" offset="0.0351562"/><stop stop-opacity="1" stop-color="rgb(58.918762%, 6.217957%, 5.023193%)" offset="0.0390625"/><stop stop-opacity="1" stop-color="rgb(59.085083%, 6.526184%, 5.210876%)" offset="0.0429688"/><stop stop-opacity="1" stop-color="rgb(59.25293%, 6.834412%, 5.400085%)" offset="0.046875"/><stop stop-opacity="1" stop-color="rgb(59.41925%, 7.141113%, 5.587769%)" offset="0.0507812"/><stop stop-opacity="1" stop-color="rgb(59.587097%, 7.449341%, 5.776978%)" offset="0.0546875"/><stop stop-opacity="1" stop-color="rgb(59.753418%, 7.757568%, 5.964661%)" offset="0.0585938"/><stop stop-opacity="1" stop-color="rgb(59.921265%, 8.065796%, 6.15387%)" offset="0.0625"/><stop stop-opacity="1" stop-color="rgb(60.087585%, 8.372498%, 6.341553%)" offset="0.0664062"/><stop stop-opacity="1" stop-color="rgb(60.255432%, 8.680725%, 6.530762%)" offset="0.0703125"/><stop stop-opacity="1" stop-color="rgb(60.421753%, 8.988953%, 6.718445%)" offset="0.0742188"/><stop stop-opacity="1" stop-color="rgb(60.5896%, 9.29718%, 6.907654%)" offset="0.078125"/><stop stop-opacity="1" stop-color="rgb(60.75592%, 9.603882%, 7.095337%)" offset="0.0820312"/><stop stop-opacity="1" stop-color="rgb(60.923767%, 9.912109%, 7.284546%)" offset="0.0859375"/><stop stop-opacity="1" stop-color="rgb(61.090088%, 10.220337%, 7.472229%)" offset="0.0898438"/><stop stop-opacity="1" stop-color="rgb(61.256409%, 10.528564%, 7.661438%)" offset="0.09375"/><stop stop-opacity="1" stop-color="rgb(61.422729%, 10.836792%, 7.849121%)" offset="0.0976562"/><stop stop-opacity="1" stop-color="rgb(61.590576%, 11.14502%, 8.03833%)" offset="0.101562"/><stop stop-opacity="1" stop-color="rgb(61.756897%, 11.451721%, 8.226013%)" offset="0.105469"/><stop stop-opacity="1" stop-color="rgb(61.924744%, 11.759949%, 8.413696%)" offset="0.109375"/><stop stop-opacity="1" stop-color="rgb(62.091064%, 12.068176%, 8.601379%)" offset="0.113281"/><stop stop-opacity="1" stop-color="rgb(62.258911%, 12.376404%, 8.790588%)" offset="0.117188"/><stop stop-opacity="1" stop-color="rgb(62.425232%, 12.683105%, 8.978271%)" offset="0.121094"/><stop stop-opacity="1" stop-color="rgb(62.593079%, 12.991333%, 9.16748%)" offset="0.125"/><stop stop-opacity="1" stop-color="rgb(62.759399%, 13.299561%, 9.355164%)" offset="0.128906"/><stop stop-opacity="1" stop-color="rgb(62.927246%, 13.607788%, 9.544373%)" offset="0.132812"/><stop stop-opacity="1" stop-color="rgb(63.093567%, 13.91449%, 9.732056%)" offset="0.136719"/><stop stop-opacity="1" stop-color="rgb(63.261414%, 14.222717%, 9.921265%)" offset="0.140625"/><stop stop-opacity="1" stop-color="rgb(63.427734%, 14.530945%, 10.108948%)" offset="0.144531"/><stop stop-opacity="1" stop-color="rgb(63.595581%, 14.839172%, 10.298157%)" offset="0.148438"/><stop stop-opacity="1" stop-color="rgb(63.761902%, 15.145874%, 10.48584%)" offset="0.152344"/><stop stop-opacity="1" stop-color="rgb(63.928223%, 15.454102%, 10.675049%)" offset="0.15625"/><stop stop-opacity="1" stop-color="rgb(64.094543%, 15.762329%, 10.862732%)" offset="0.160156"/><stop stop-opacity="1" stop-color="rgb(64.26239%, 16.070557%, 11.051941%)" offset="0.164062"/><stop stop-opacity="1" stop-color="rgb(64.428711%, 16.378784%, 11.239624%)" offset="0.167969"/><stop stop-opacity="1" stop-color="rgb(64.596558%, 16.687012%, 11.428833%)" offset="0.171875"/><stop stop-opacity="1" stop-color="rgb(64.762878%, 16.993713%, 11.616516%)" offset="0.175781"/><stop stop-opacity="1" stop-color="rgb(64.930725%, 17.301941%, 11.805725%)" offset="0.179688"/><stop stop-opacity="1" stop-color="rgb(65.097046%, 17.610168%, 11.993408%)" offset="0.183594"/><stop stop-opacity="1" stop-color="rgb(65.264893%, 17.918396%, 12.182617%)" offset="0.1875"/><stop stop-opacity="1" stop-color="rgb(65.431213%, 18.225098%, 12.3703%)" offset="0.191406"/><stop stop-opacity="1" stop-color="rgb(65.59906%, 18.533325%, 12.559509%)" offset="0.195312"/><stop stop-opacity="1" stop-color="rgb(65.765381%, 18.841553%, 12.747192%)" offset="0.199219"/><stop stop-opacity="1" stop-color="rgb(65.933228%, 19.14978%, 12.936401%)" offset="0.203125"/><stop stop-opacity="1" stop-color="rgb(66.099548%, 19.456482%, 13.124084%)" offset="0.207031"/><stop stop-opacity="1" stop-color="rgb(66.267395%, 19.764709%, 13.313293%)" offset="0.210938"/><stop stop-opacity="1" stop-color="rgb(66.433716%, 20.072937%, 13.500977%)" offset="0.214844"/><stop stop-opacity="1" stop-color="rgb(66.600037%, 20.381165%, 13.690186%)" offset="0.21875"/><stop stop-opacity="1" stop-color="rgb(66.766357%, 20.689392%, 13.877869%)" offset="0.222656"/><stop stop-opacity="1" stop-color="rgb(66.934204%, 20.99762%, 14.067078%)" offset="0.226562"/><stop stop-opacity="1" stop-color="rgb(67.100525%, 21.304321%, 14.254761%)" offset="0.230469"/><stop stop-opacity="1" stop-color="rgb(67.268372%, 21.612549%, 14.442444%)" offset="0.234375"/><stop stop-opacity="1" stop-color="rgb(67.434692%, 21.920776%, 14.630127%)" offset="0.238281"/><stop stop-opacity="1" stop-color="rgb(67.602539%, 22.229004%, 14.819336%)" offset="0.242188"/><stop stop-opacity="1" stop-color="rgb(67.76886%, 22.535706%, 15.007019%)" offset="0.246094"/><stop stop-opacity="1" stop-color="rgb(67.936707%, 22.843933%, 15.196228%)" offset="0.25"/><stop stop-opacity="1" stop-color="rgb(68.103027%, 23.152161%, 15.383911%)" offset="0.253906"/><stop stop-opacity="1" stop-color="rgb(68.270874%, 23.460388%, 15.57312%)" offset="0.257812"/><stop stop-opacity="1" stop-color="rgb(68.437195%, 23.76709%, 15.760803%)" offset="0.261719"/><stop stop-opacity="1" stop-color="rgb(68.605042%, 24.075317%, 15.950012%)" offset="0.265625"/><stop stop-opacity="1" stop-color="rgb(68.771362%, 24.383545%, 16.137695%)" offset="0.269531"/><stop stop-opacity="1" stop-color="rgb(68.939209%, 24.691772%, 16.326904%)" offset="0.273438"/><stop stop-opacity="1" stop-color="rgb(69.10553%, 24.998474%, 16.514587%)" offset="0.277344"/><stop stop-opacity="1" stop-color="rgb(69.273376%, 25.306702%, 16.703796%)" offset="0.28125"/><stop stop-opacity="1" stop-color="rgb(69.439697%, 25.614929%, 16.891479%)" offset="0.285156"/><stop stop-opacity="1" stop-color="rgb(69.606018%, 25.923157%, 17.080688%)" offset="0.289062"/><stop stop-opacity="1" stop-color="rgb(69.772339%, 26.231384%, 17.268372%)" offset="0.292969"/><stop stop-opacity="1" stop-color="rgb(69.940186%, 26.539612%, 17.457581%)" offset="0.296875"/><stop stop-opacity="1" stop-color="rgb(70.106506%, 26.846313%, 17.645264%)" offset="0.300781"/><stop stop-opacity="1" stop-color="rgb(70.274353%, 27.154541%, 17.834473%)" offset="0.304688"/><stop stop-opacity="1" stop-color="rgb(70.440674%, 27.462769%, 18.022156%)" offset="0.308594"/><stop stop-opacity="1" stop-color="rgb(70.608521%, 27.770996%, 18.211365%)" offset="0.3125"/><stop stop-opacity="1" stop-color="rgb(70.774841%, 28.077698%, 18.399048%)" offset="0.316406"/><stop stop-opacity="1" stop-color="rgb(70.942688%, 28.385925%, 18.588257%)" offset="0.320312"/><stop stop-opacity="1" stop-color="rgb(71.109009%, 28.694153%, 18.77594%)" offset="0.324219"/><stop stop-opacity="1" stop-color="rgb(71.276855%, 29.00238%, 18.965149%)" offset="0.328125"/><stop stop-opacity="1" stop-color="rgb(71.443176%, 29.309082%, 19.152832%)" offset="0.332031"/><stop stop-opacity="1" stop-color="rgb(71.611023%, 29.61731%, 19.342041%)" offset="0.335938"/><stop stop-opacity="1" stop-color="rgb(71.777344%, 29.925537%, 19.529724%)" offset="0.339844"/><stop stop-opacity="1" stop-color="rgb(71.94519%, 30.233765%, 19.718933%)" offset="0.34375"/><stop stop-opacity="1" stop-color="rgb(72.111511%, 30.540466%, 19.906616%)" offset="0.347656"/><stop stop-opacity="1" stop-color="rgb(72.277832%, 30.848694%, 20.095825%)" offset="0.351562"/><stop stop-opacity="1" stop-color="rgb(72.444153%, 31.156921%, 20.283508%)" offset="0.355469"/><stop stop-opacity="1" stop-color="rgb(72.612%, 31.465149%, 20.471191%)" offset="0.359375"/><stop stop-opacity="1" stop-color="rgb(72.77832%, 31.773376%, 20.658875%)" offset="0.363281"/><stop stop-opacity="1" stop-color="rgb(72.946167%, 32.081604%, 20.848083%)" offset="0.367188"/><stop stop-opacity="1" stop-color="rgb(73.112488%, 32.388306%, 21.035767%)" offset="0.371094"/><stop stop-opacity="1" stop-color="rgb(73.280334%, 32.696533%, 21.224976%)" offset="0.375"/><stop stop-opacity="1" stop-color="rgb(73.446655%, 33.004761%, 21.412659%)" offset="0.378906"/><stop stop-opacity="1" stop-color="rgb(73.614502%, 33.312988%, 21.601868%)" offset="0.382812"/><stop stop-opacity="1" stop-color="rgb(73.780823%, 33.61969%, 21.789551%)" offset="0.386719"/><stop stop-opacity="1" stop-color="rgb(73.948669%, 33.927917%, 21.97876%)" offset="0.390625"/><stop stop-opacity="1" stop-color="rgb(74.11499%, 34.236145%, 22.166443%)" offset="0.394531"/><stop stop-opacity="1" stop-color="rgb(74.282837%, 34.544373%, 22.355652%)" offset="0.398438"/><stop stop-opacity="1" stop-color="rgb(74.449158%, 34.851074%, 22.543335%)" offset="0.402344"/><stop stop-opacity="1" stop-color="rgb(74.617004%, 35.159302%, 22.732544%)" offset="0.40625"/><stop stop-opacity="1" stop-color="rgb(74.783325%, 35.467529%, 22.920227%)" offset="0.410156"/><stop stop-opacity="1" stop-color="rgb(74.949646%, 35.775757%, 23.109436%)" offset="0.414062"/><stop stop-opacity="1" stop-color="rgb(75.115967%, 36.082458%, 23.297119%)" offset="0.417969"/><stop stop-opacity="1" stop-color="rgb(75.283813%, 36.390686%, 23.486328%)" offset="0.421875"/><stop stop-opacity="1" stop-color="rgb(75.450134%, 36.698914%, 23.674011%)" offset="0.425781"/><stop stop-opacity="1" stop-color="rgb(75.617981%, 37.007141%, 23.86322%)" offset="0.429688"/><stop stop-opacity="1" stop-color="rgb(75.784302%, 37.315369%, 24.050903%)" offset="0.433594"/><stop stop-opacity="1" stop-color="rgb(75.952148%, 37.623596%, 24.240112%)" offset="0.4375"/><stop stop-opacity="1" stop-color="rgb(76.118469%, 37.930298%, 24.427795%)" offset="0.441406"/><stop stop-opacity="1" stop-color="rgb(76.286316%, 38.238525%, 24.617004%)" offset="0.445312"/><stop stop-opacity="1" stop-color="rgb(76.452637%, 38.546753%, 24.804688%)" offset="0.449219"/><stop stop-opacity="1" stop-color="rgb(76.620483%, 38.85498%, 24.993896%)" offset="0.453125"/><stop stop-opacity="1" stop-color="rgb(76.786804%, 39.161682%, 25.18158%)" offset="0.457031"/><stop stop-opacity="1" stop-color="rgb(76.954651%, 39.46991%, 25.370789%)" offset="0.460938"/><stop stop-opacity="1" stop-color="rgb(77.120972%, 39.778137%, 25.558472%)" offset="0.464844"/><stop stop-opacity="1" stop-color="rgb(77.288818%, 40.086365%, 25.747681%)" offset="0.46875"/><stop stop-opacity="1" stop-color="rgb(77.455139%, 40.393066%, 25.935364%)" offset="0.472656"/><stop stop-opacity="1" stop-color="rgb(77.622986%, 40.701294%, 26.124573%)" offset="0.476562"/><stop stop-opacity="1" stop-color="rgb(77.789307%, 41.009521%, 26.312256%)" offset="0.480469"/><stop stop-opacity="1" stop-color="rgb(77.955627%, 41.317749%, 26.499939%)" offset="0.484375"/><stop stop-opacity="1" stop-color="rgb(78.121948%, 41.625977%, 26.687622%)" offset="0.488281"/><stop stop-opacity="1" stop-color="rgb(78.289795%, 41.934204%, 26.876831%)" offset="0.492188"/><stop stop-opacity="1" stop-color="rgb(78.456116%, 42.240906%, 27.064514%)" offset="0.496094"/><stop stop-opacity="1" stop-color="rgb(78.623962%, 42.549133%, 27.253723%)" offset="0.5"/><stop stop-opacity="1" stop-color="rgb(78.790283%, 42.857361%, 27.441406%)" offset="0.503906"/><stop stop-opacity="1" stop-color="rgb(78.95813%, 43.165588%, 27.630615%)" offset="0.507812"/><stop stop-opacity="1" stop-color="rgb(79.124451%, 43.47229%, 27.818298%)" offset="0.511719"/><stop stop-opacity="1" stop-color="rgb(79.292297%, 43.780518%, 28.007507%)" offset="0.515625"/><stop stop-opacity="1" stop-color="rgb(79.458618%, 44.088745%, 28.19519%)" offset="0.519531"/><stop stop-opacity="1" stop-color="rgb(79.626465%, 44.396973%, 28.384399%)" offset="0.523438"/><stop stop-opacity="1" stop-color="rgb(79.792786%, 44.703674%, 28.572083%)" offset="0.527344"/><stop stop-opacity="1" stop-color="rgb(79.960632%, 45.011902%, 28.761292%)" offset="0.53125"/><stop stop-opacity="1" stop-color="rgb(80.126953%, 45.320129%, 28.948975%)" offset="0.535156"/><stop stop-opacity="1" stop-color="rgb(80.2948%, 45.628357%, 29.138184%)" offset="0.539062"/><stop stop-opacity="1" stop-color="rgb(80.461121%, 45.935059%, 29.325867%)" offset="0.542969"/><stop stop-opacity="1" stop-color="rgb(80.627441%, 46.243286%, 29.515076%)" offset="0.546875"/><stop stop-opacity="1" stop-color="rgb(80.793762%, 46.551514%, 29.702759%)" offset="0.550781"/><stop stop-opacity="1" stop-color="rgb(80.961609%, 46.859741%, 29.891968%)" offset="0.554688"/><stop stop-opacity="1" stop-color="rgb(81.12793%, 47.167969%, 30.079651%)" offset="0.558594"/><stop stop-opacity="1" stop-color="rgb(81.295776%, 47.476196%, 30.26886%)" offset="0.5625"/><stop stop-opacity="1" stop-color="rgb(81.462097%, 47.782898%, 30.456543%)" offset="0.566406"/><stop stop-opacity="1" stop-color="rgb(81.629944%, 48.091125%, 30.645752%)" offset="0.570312"/><stop stop-opacity="1" stop-color="rgb(81.796265%, 48.399353%, 30.833435%)" offset="0.574219"/><stop stop-opacity="1" stop-color="rgb(81.964111%, 48.707581%, 31.022644%)" offset="0.578125"/><stop stop-opacity="1" stop-color="rgb(82.130432%, 49.014282%, 31.210327%)" offset="0.582031"/><stop stop-opacity="1" stop-color="rgb(82.298279%, 49.32251%, 31.399536%)" offset="0.585938"/><stop stop-opacity="1" stop-color="rgb(82.4646%, 49.630737%, 31.587219%)" offset="0.589844"/><stop stop-opacity="1" stop-color="rgb(82.632446%, 49.938965%, 31.776428%)" offset="0.59375"/><stop stop-opacity="1" stop-color="rgb(82.798767%, 50.245667%, 31.964111%)" offset="0.597656"/><stop stop-opacity="1" stop-color="rgb(82.966614%, 50.553894%, 32.15332%)" offset="0.601562"/><stop stop-opacity="1" stop-color="rgb(83.132935%, 50.862122%, 32.341003%)" offset="0.605469"/><stop stop-opacity="1" stop-color="rgb(83.299255%, 51.170349%, 32.528687%)" offset="0.609375"/><stop stop-opacity="1" stop-color="rgb(83.465576%, 51.477051%, 32.71637%)" offset="0.613281"/><stop stop-opacity="1" stop-color="rgb(83.633423%, 51.785278%, 32.905579%)" offset="0.617188"/><stop stop-opacity="1" stop-color="rgb(83.799744%, 52.093506%, 33.093262%)" offset="0.621094"/><stop stop-opacity="1" stop-color="rgb(83.96759%, 52.401733%, 33.282471%)" offset="0.625"/><stop stop-opacity="1" stop-color="rgb(84.133911%, 52.709961%, 33.470154%)" offset="0.628906"/><stop stop-opacity="1" stop-color="rgb(84.301758%, 53.018188%, 33.659363%)" offset="0.632812"/><stop stop-opacity="1" stop-color="rgb(84.468079%, 53.32489%, 33.847046%)" offset="0.636719"/><stop stop-opacity="1" stop-color="rgb(84.635925%, 53.633118%, 34.036255%)" offset="0.640625"/><stop stop-opacity="1" stop-color="rgb(84.802246%, 53.941345%, 34.223938%)" offset="0.644531"/><stop stop-opacity="1" stop-color="rgb(84.970093%, 54.249573%, 34.413147%)" offset="0.648438"/><stop stop-opacity="1" stop-color="rgb(85.136414%, 54.556274%, 34.60083%)" offset="0.652344"/><stop stop-opacity="1" stop-color="rgb(85.30426%, 54.864502%, 34.790039%)" offset="0.65625"/><stop stop-opacity="1" stop-color="rgb(85.470581%, 55.172729%, 34.977722%)" offset="0.660156"/><stop stop-opacity="1" stop-color="rgb(85.638428%, 55.480957%, 35.166931%)" offset="0.664062"/><stop stop-opacity="1" stop-color="rgb(85.804749%, 55.787659%, 35.354614%)" offset="0.667969"/><stop stop-opacity="1" stop-color="rgb(85.972595%, 56.095886%, 35.543823%)" offset="0.671875"/><stop stop-opacity="1" stop-color="rgb(86.138916%, 56.404114%, 35.731506%)" offset="0.675781"/><stop stop-opacity="1" stop-color="rgb(86.305237%, 56.712341%, 35.920715%)" offset="0.679688"/><stop stop-opacity="1" stop-color="rgb(86.471558%, 57.019043%, 36.108398%)" offset="0.683594"/><stop stop-opacity="1" stop-color="rgb(86.639404%, 57.327271%, 36.297607%)" offset="0.6875"/><stop stop-opacity="1" stop-color="rgb(86.805725%, 57.635498%, 36.485291%)" offset="0.691406"/><stop stop-opacity="1" stop-color="rgb(86.973572%, 57.943726%, 36.6745%)" offset="0.695312"/><stop stop-opacity="1" stop-color="rgb(87.139893%, 58.251953%, 36.862183%)" offset="0.699219"/><stop stop-opacity="1" stop-color="rgb(87.307739%, 58.560181%, 37.051392%)" offset="0.703125"/><stop stop-opacity="1" stop-color="rgb(87.47406%, 58.866882%, 37.239075%)" offset="0.707031"/><stop stop-opacity="1" stop-color="rgb(87.641907%, 59.17511%, 37.428284%)" offset="0.710938"/><stop stop-opacity="1" stop-color="rgb(87.808228%, 59.483337%, 37.615967%)" offset="0.714844"/><stop stop-opacity="1" stop-color="rgb(87.976074%, 59.791565%, 37.805176%)" offset="0.71875"/><stop stop-opacity="1" stop-color="rgb(88.142395%, 60.098267%, 37.992859%)" offset="0.722656"/><stop stop-opacity="1" stop-color="rgb(88.310242%, 60.406494%, 38.182068%)" offset="0.726562"/><stop stop-opacity="1" stop-color="rgb(88.476562%, 60.714722%, 38.369751%)" offset="0.730469"/><stop stop-opacity="1" stop-color="rgb(88.644409%, 61.022949%, 38.557434%)" offset="0.734375"/><stop stop-opacity="1" stop-color="rgb(88.81073%, 61.329651%, 38.745117%)" offset="0.738281"/><stop stop-opacity="1" stop-color="rgb(88.977051%, 61.637878%, 38.934326%)" offset="0.742188"/><stop stop-opacity="1" stop-color="rgb(89.143372%, 61.946106%, 39.122009%)" offset="0.746094"/><stop stop-opacity="1" stop-color="rgb(89.311218%, 62.254333%, 39.311218%)" offset="0.75"/><stop stop-opacity="1" stop-color="rgb(89.477539%, 62.561035%, 39.498901%)" offset="0.753906"/><stop stop-opacity="1" stop-color="rgb(89.645386%, 62.869263%, 39.68811%)" offset="0.757812"/><stop stop-opacity="1" stop-color="rgb(89.811707%, 63.17749%, 39.875793%)" offset="0.761719"/><stop stop-opacity="1" stop-color="rgb(89.979553%, 63.485718%, 40.065002%)" offset="0.765625"/><stop stop-opacity="1" stop-color="rgb(90.145874%, 63.793945%, 40.252686%)" offset="0.769531"/><stop stop-opacity="1" stop-color="rgb(90.313721%, 64.102173%, 40.441895%)" offset="0.773438"/><stop stop-opacity="1" stop-color="rgb(90.480042%, 64.408875%, 40.629578%)" offset="0.777344"/><stop stop-opacity="1" stop-color="rgb(90.647888%, 64.717102%, 40.818787%)" offset="0.78125"/><stop stop-opacity="1" stop-color="rgb(90.814209%, 65.02533%, 41.00647%)" offset="0.785156"/><stop stop-opacity="1" stop-color="rgb(90.982056%, 65.333557%, 41.195679%)" offset="0.789062"/><stop stop-opacity="1" stop-color="rgb(91.148376%, 65.640259%, 41.383362%)" offset="0.792969"/><stop stop-opacity="1" stop-color="rgb(91.316223%, 65.948486%, 41.572571%)" offset="0.796875"/><stop stop-opacity="1" stop-color="rgb(91.482544%, 66.256714%, 41.760254%)" offset="0.800781"/><stop stop-opacity="1" stop-color="rgb(91.648865%, 66.564941%, 41.949463%)" offset="0.804688"/><stop stop-opacity="1" stop-color="rgb(91.815186%, 66.871643%, 42.137146%)" offset="0.808594"/><stop stop-opacity="1" stop-color="rgb(91.983032%, 67.179871%, 42.326355%)" offset="0.8125"/><stop stop-opacity="1" stop-color="rgb(92.149353%, 67.488098%, 42.514038%)" offset="0.816406"/><stop stop-opacity="1" stop-color="rgb(92.3172%, 67.796326%, 42.703247%)" offset="0.820312"/><stop stop-opacity="1" stop-color="rgb(92.483521%, 68.104553%, 42.89093%)" offset="0.824219"/><stop stop-opacity="1" stop-color="rgb(92.651367%, 68.412781%, 43.080139%)" offset="0.828125"/><stop stop-opacity="1" stop-color="rgb(92.817688%, 68.719482%, 43.267822%)" offset="0.832031"/><stop stop-opacity="1" stop-color="rgb(92.985535%, 69.02771%, 43.457031%)" offset="0.835938"/><stop stop-opacity="1" stop-color="rgb(93.151855%, 69.335938%, 43.644714%)" offset="0.839844"/><stop stop-opacity="1" stop-color="rgb(93.319702%, 69.644165%, 43.833923%)" offset="0.84375"/><stop stop-opacity="1" stop-color="rgb(93.486023%, 69.950867%, 44.021606%)" offset="0.847656"/><stop stop-opacity="1" stop-color="rgb(93.65387%, 70.259094%, 44.210815%)" offset="0.851562"/><stop stop-opacity="1" stop-color="rgb(93.82019%, 70.567322%, 44.398499%)" offset="0.855469"/><stop stop-opacity="1" stop-color="rgb(93.988037%, 70.875549%, 44.586182%)" offset="0.859375"/><stop stop-opacity="1" stop-color="rgb(94.154358%, 71.182251%, 44.773865%)" offset="0.863281"/><stop stop-opacity="1" stop-color="rgb(94.322205%, 71.490479%, 44.963074%)" offset="0.867188"/><stop stop-opacity="1" stop-color="rgb(94.488525%, 71.798706%, 45.150757%)" offset="0.871094"/><stop stop-opacity="1" stop-color="rgb(94.654846%, 72.106934%, 45.339966%)" offset="0.875"/><stop stop-opacity="1" stop-color="rgb(94.821167%, 72.413635%, 45.527649%)" offset="0.878906"/><stop stop-opacity="1" stop-color="rgb(94.989014%, 72.721863%, 45.716858%)" offset="0.882812"/><stop stop-opacity="1" stop-color="rgb(95.155334%, 73.03009%, 45.904541%)" offset="0.886719"/><stop stop-opacity="1" stop-color="rgb(95.323181%, 73.338318%, 46.09375%)" offset="0.890625"/><stop stop-opacity="1" stop-color="rgb(95.489502%, 73.646545%, 46.281433%)" offset="0.894531"/><stop stop-opacity="1" stop-color="rgb(95.657349%, 73.954773%, 46.470642%)" offset="0.898438"/><stop stop-opacity="1" stop-color="rgb(95.823669%, 74.261475%, 46.658325%)" offset="0.902344"/><stop stop-opacity="1" stop-color="rgb(95.991516%, 74.569702%, 46.847534%)" offset="0.90625"/><stop stop-opacity="1" stop-color="rgb(96.157837%, 74.87793%, 47.035217%)" offset="0.910156"/><stop stop-opacity="1" stop-color="rgb(96.325684%, 75.186157%, 47.224426%)" offset="0.914062"/><stop stop-opacity="1" stop-color="rgb(96.492004%, 75.492859%, 47.412109%)" offset="0.917969"/><stop stop-opacity="1" stop-color="rgb(96.659851%, 75.801086%, 47.601318%)" offset="0.921875"/><stop stop-opacity="1" stop-color="rgb(96.826172%, 76.109314%, 47.789001%)" offset="0.925781"/><stop stop-opacity="1" stop-color="rgb(96.994019%, 76.417542%, 47.97821%)" offset="0.929688"/><stop stop-opacity="1" stop-color="rgb(97.160339%, 76.724243%, 48.165894%)" offset="0.933594"/><stop stop-opacity="1" stop-color="rgb(97.32666%, 77.032471%, 48.355103%)" offset="0.9375"/><stop stop-opacity="1" stop-color="rgb(97.492981%, 77.340698%, 48.542786%)" offset="0.941406"/><stop stop-opacity="1" stop-color="rgb(97.660828%, 77.648926%, 48.731995%)" offset="0.945312"/><stop stop-opacity="1" stop-color="rgb(97.827148%, 77.955627%, 48.919678%)" offset="0.949219"/><stop stop-opacity="1" stop-color="rgb(97.994995%, 78.263855%, 49.108887%)" offset="0.953125"/><stop stop-opacity="1" stop-color="rgb(98.161316%, 78.572083%, 49.29657%)" offset="0.957031"/><stop stop-opacity="1" stop-color="rgb(98.329163%, 78.88031%, 49.485779%)" offset="0.960938"/><stop stop-opacity="1" stop-color="rgb(98.495483%, 79.188538%, 49.673462%)" offset="0.964844"/><stop stop-opacity="1" stop-color="rgb(98.66333%, 79.496765%, 49.862671%)" offset="0.96875"/><stop stop-opacity="1" stop-color="rgb(98.829651%, 79.803467%, 50.050354%)" offset="0.972656"/><stop stop-opacity="1" stop-color="rgb(98.997498%, 80.111694%, 50.239563%)" offset="0.976562"/><stop stop-opacity="1" stop-color="rgb(99.163818%, 80.419922%, 50.427246%)" offset="0.980469"/><stop stop-opacity="1" stop-color="rgb(99.331665%, 80.728149%, 50.614929%)" offset="0.984375"/><stop stop-opacity="1" stop-color="rgb(99.497986%, 81.034851%, 50.802612%)" offset="0.988281"/><stop stop-opacity="1" stop-color="rgb(99.665833%, 81.343079%, 50.991821%)" offset="0.992188"/><stop stop-opacity="1" stop-color="rgb(99.832153%, 81.651306%, 51.179504%)" offset="0.996094"/><stop stop-opacity="1" stop-color="rgb(99.998474%, 81.959534%, 51.368713%)" offset="1"/></linearGradient><clipPath id="994182c0e4"><path d="M 208 181.289062 L 557 181.289062 L 557 586 L 208 586 Z M 208 181.289062 " clip-rule="nonzero"/></clipPath></defs><rect x="-76.8" width="921.6" fill="#ffffff" y="-76.799999" height="921.599993" fill-opacity="1"/><rect x="-76.8" fill="url(#2710ad7bcb)" width="921.6" y="-76.799999" height="921.599993"/><g clip-path="url(#994182c0e4)"><path fill="#feffde" d="M 552.164062 266.1875 C 560.089844 249.371094 556.960938 228.660156 544.332031 215 C 530.742188 200.296875 509.292969 195.070312 490.550781 190.640625 C 467.917969 185.292969 444.691406 182.226562 421.449219 181.488281 C 408.28125 181.070312 395.089844 181.402344 381.964844 182.492188 C 375.351562 183.039062 368.757812 183.792969 362.191406 184.707031 C 359.445312 185.09375 356.527344 185.308594 353.714844 185.832031 C 350.6875 185.730469 347.675781 185.753906 344.65625 186.339844 C 339.621094 187.308594 334.894531 189.148438 330.285156 191.363281 C 320.886719 195.878906 312.335938 202.464844 305.074219 209.914062 C 288.847656 226.546875 278.984375 247.878906 274.046875 270.417969 C 262.265625 324.195312 276.886719 379.585938 266.582031 433.445312 C 264.113281 446.34375 260.328125 459.996094 251.34375 469.984375 C 242.394531 479.9375 228.507812 484.359375 216.023438 478.585938 C 212.667969 477.035156 209.816406 479.730469 209.9375 482.492188 C 208.859375 483.050781 208.386719 484.484375 208.929688 485.761719 C 212.78125 494.84375 225.335938 501.027344 233.542969 505.539062 C 243.210938 510.859375 253.5 515.148438 264.089844 518.261719 C 274.414062 521.296875 285.085938 523.199219 295.816406 524.015625 C 301.429688 524.445312 307.0625 524.542969 312.691406 524.308594 C 316.214844 524.164062 320.085938 524.277344 323.40625 523.066406 C 326.644531 531.367188 330.117188 539.578125 333.976562 547.609375 C 338.742188 557.523438 343.578125 568.519531 350.644531 577.019531 C 351.679688 578.269531 353.292969 578.371094 354.703125 577.847656 C 354.734375 578.175781 354.738281 578.5 354.859375 578.847656 C 355.34375 580.21875 356.601562 581.5 358.136719 581.605469 C 357.921875 581.910156 357.683594 582.195312 357.507812 582.53125 C 357.21875 583.082031 357.3125 583.96875 357.957031 584.253906 C 363.039062 586.503906 369.261719 583.757812 374.261719 582.15625 C 381.242188 579.917969 388.160156 577.457031 395.089844 575.070312 C 408.617188 570.410156 422.132812 565.726562 435.648438 561.027344 C 461.5 552.042969 487.585938 543.53125 513.273438 534.0625 C 513.242188 534.1875 513.199219 534.296875 513.175781 534.421875 C 512.667969 536.578125 515.214844 538.046875 516.835938 536.554688 C 519.070312 534.496094 521.136719 532.394531 522.9375 529.945312 C 524.765625 527.457031 526.242188 524.816406 527.777344 522.140625 C 527.839844 522.035156 527.90625 521.921875 527.964844 521.816406 C 528.621094 521.511719 529.25 521.164062 529.816406 520.726562 C 530.492188 520.203125 530.445312 519.058594 529.957031 518.402344 C 531.648438 515.507812 533.292969 512.53125 534.574219 509.457031 C 536.472656 509.332031 538.34375 509.117188 540.132812 508.6875 C 543.933594 507.78125 543.789062 502.121094 540.132812 501.136719 C 538.386719 500.664062 536.550781 500.417969 534.671875 500.289062 C 536.820312 499.929688 537.957031 497.589844 537.007812 495.402344 C 535.519531 491.992188 532.386719 489.828125 529.808594 487.238281 C 526.949219 484.363281 524.253906 481.3125 521.789062 478.089844 C 517.070312 471.914062 513.109375 465.136719 509.808594 458.105469 C 502.847656 443.261719 499.011719 426.847656 497.742188 410.542969 C 496.25 391.378906 498.175781 372.085938 501.699219 353.246094 C 503.515625 343.539062 505.710938 333.898438 508.089844 324.316406 C 510.269531 315.546875 513.367188 306.476562 514.066406 297.40625 C 516.421875 296.492188 517.792969 293.515625 516.664062 291.425781 C 522.699219 291.214844 528.894531 288.652344 533.890625 285.765625 C 541.675781 281.265625 548.324219 274.34375 552.164062 266.1875 Z M 313.574219 515.496094 C 308.246094 515.753906 302.910156 515.707031 297.582031 515.359375 C 287.023438 514.683594 276.570312 512.769531 266.421875 509.777344 C 256.539062 506.867188 246.984375 502.9375 237.941406 498.003906 C 233.617188 495.648438 229.453125 493.027344 225.382812 490.257812 C 241.367188 491.417969 257.582031 479.191406 265.140625 465.507812 C 277.753906 442.679688 278.984375 413.628906 279.105469 388.167969 C 279.347656 336.105469 268.925781 276.398438 299.707031 230.324219 C 306.730469 219.8125 315.773438 210.429688 326.425781 203.5625 C 331.457031 200.320312 336.75 197.753906 342.320312 195.605469 C 343.476562 195.15625 344.632812 194.683594 345.789062 194.222656 C 345.914062 194.289062 346.039062 194.367188 346.171875 194.414062 C 350.296875 195.917969 354.144531 194.769531 358.355469 194.101562 C 363.785156 193.246094 369.246094 192.539062 374.714844 191.964844 C 384.714844 190.917969 394.761719 190.308594 404.8125 190.144531 C 425.5625 189.804688 446.359375 191.300781 466.820312 194.765625 C 497.132812 199.890625 551.667969 208.582031 547.65625 250.390625 C 546.765625 259.683594 542.199219 268.175781 535.140625 274.238281 C 527.425781 280.867188 518.601562 281.75 509.511719 285.160156 C 508.511719 285.535156 508.011719 286.308594 507.792969 287.128906 C 504.519531 285.960938 501.203125 284.878906 497.839844 283.894531 C 498.953125 283.59375 500.082031 283.324219 501.152344 282.925781 C 507.90625 280.421875 513.960938 276.066406 516.972656 269.363281 C 517.863281 267.378906 515.847656 264.445312 513.621094 266.011719 C 508.789062 269.414062 503.683594 272.871094 498.207031 275.148438 C 498.125 275.179688 497.769531 275.316406 497.78125 275.3125 C 497.394531 275.460938 497.007812 275.605469 496.617188 275.734375 C 495.921875 275.980469 495.210938 276.203125 494.5 276.40625 C 493.082031 276.808594 491.644531 277.179688 490.195312 277.457031 C 488.691406 277.746094 487.210938 278.144531 485.695312 278.394531 C 484.222656 278.640625 482.824219 278.761719 481.601562 279.585938 C 479.769531 279.140625 477.925781 278.6875 476.109375 278.246094 C 462.644531 275 449.019531 272.410156 435.304688 270.480469 C 409.546875 266.863281 381.261719 263.628906 355.421875 268.34375 C 355.347656 268.214844 355.253906 268.121094 355.136719 268.042969 C 354.957031 267.644531 354.703125 267.289062 354.308594 267.085938 C 351.605469 265.6875 348.179688 267.394531 345.585938 268.519531 C 343.753906 269.316406 341.964844 270.089844 340.09375 270.808594 C 341.324219 269.863281 342.574219 268.941406 343.753906 267.933594 C 351.15625 261.648438 357.292969 253.269531 360.15625 243.925781 C 360.6875 242.199219 361.046875 240.441406 361.324219 238.675781 C 362.28125 235.40625 362.804688 232.039062 362.597656 228.453125 C 362.230469 222.042969 359.90625 215.542969 354.804688 211.382812 C 353.25 210.117188 351.59375 209.148438 349.878906 208.402344 C 346.511719 206.128906 342.539062 204.980469 338.136719 205.804688 C 337.4375 205.9375 337.09375 206.386719 336.902344 206.914062 C 330.984375 207.855469 325.222656 210.734375 320.726562 214.726562 C 317.90625 217.230469 315.496094 220.175781 313.320312 223.25 C 311.171875 226.292969 308.894531 229.777344 307.816406 233.371094 C 307.351562 234.914062 309.34375 235.972656 310.453125 234.902344 C 313.144531 232.308594 315.195312 228.9375 317.640625 226.097656 C 319.9375 223.433594 322.464844 220.894531 325.367188 218.890625 C 330.320312 215.46875 336.710938 213.386719 342.734375 214.921875 C 343.746094 215.175781 344.671875 215.523438 345.566406 215.917969 C 347.984375 218.304688 350.046875 221 351.347656 224.175781 C 354.242188 231.242188 353.164062 239.148438 350.0625 245.957031 C 346.707031 253.3125 341.152344 259.324219 335.078125 264.53125 C 331.726562 267.402344 328.183594 270.046875 324.691406 272.742188 C 323.40625 273.734375 321.761719 274.695312 320.402344 275.851562 C 319.40625 275.523438 318.277344 275.671875 317.472656 276.476562 C 317.375 276.574219 317.285156 276.667969 317.191406 276.765625 C 317.648438 276.496094 318.109375 276.230469 318.570312 275.960938 C 315.847656 276.863281 315.15625 279.914062 314.390625 282.386719 C 313.75 284.453125 313.144531 286.515625 312.585938 288.605469 C 311.4375 292.867188 310.640625 297.261719 310.164062 301.644531 C 310.078125 302.457031 310.425781 303.097656 310.949219 303.566406 C 310.222656 306.1875 309.527344 308.777344 308.804688 311.257812 C 306.074219 320.5625 304.421875 330.234375 302.976562 339.808594 C 300.003906 359.4375 298.628906 379.277344 298.984375 399.128906 C 299.683594 438.554688 306.859375 477.9375 320.320312 515.015625 C 318.097656 515.042969 315.828125 515.386719 313.574219 515.496094 Z M 343.976562 548.070312 C 339.519531 539.171875 335.449219 530.085938 331.820312 520.820312 C 324.730469 502.703125 319.167969 483.996094 315.167969 464.957031 C 307.121094 426.664062 305.605469 387.015625 310.539062 348.199219 C 311.910156 337.417969 314.011719 326.773438 316.136719 316.121094 C 318.191406 305.800781 322.25 294.835938 322.371094 284.296875 C 322.375 283.9375 322.242188 283.679688 322.089844 283.441406 C 322.160156 283.132812 322.230469 282.828125 322.292969 282.519531 C 322.976562 283.097656 323.835938 283.480469 324.929688 283.441406 C 327.34375 283.355469 329.820312 282.925781 332.273438 282.351562 C 331.40625 284.421875 330.6875 286.558594 329.941406 288.507812 C 327.398438 295.171875 325.164062 301.960938 323.277344 308.839844 C 319.507812 322.558594 316.726562 336.660156 315.265625 350.808594 C 313.800781 364.988281 313.171875 379.300781 313.75 393.546875 C 314.027344 400.460938 314.554688 407.359375 315.515625 414.207031 C 316.539062 421.464844 318.890625 428.085938 320.480469 435.164062 C 320.515625 435.316406 320.738281 435.246094 320.714844 435.097656 C 319.652344 427.917969 319.886719 420.246094 319.386719 412.976562 C 318.921875 406.183594 318.546875 399.382812 318.472656 392.578125 C 318.320312 378.542969 319.222656 364.523438 321.550781 350.679688 C 323.757812 337.542969 326.695312 324.605469 330.753906 311.910156 C 332.828125 305.414062 335.09375 298.96875 337.589844 292.625 C 339.257812 288.371094 341.886719 283.777344 342.4375 279.109375 C 344.742188 278.21875 347.023438 277.242188 349.171875 276.027344 C 346.660156 281.515625 344.808594 287.421875 343.121094 293.019531 C 340.332031 302.300781 338.390625 311.789062 336.742188 321.332031 C 333.539062 339.878906 331.902344 358.722656 331.707031 377.53125 C 331.308594 415.078125 336.742188 452.796875 347.871094 488.664062 C 351.019531 498.808594 354.628906 508.8125 358.691406 518.625 C 362.542969 527.921875 366.128906 538.546875 372.734375 546.253906 C 373.390625 547.015625 374.1875 547.308594 374.980469 547.308594 C 374.753906 547.390625 374.53125 547.433594 374.289062 547.59375 C 373.503906 548.117188 372.96875 548.726562 372.390625 549.449219 C 371.316406 550.796875 370.289062 552.144531 369.320312 553.570312 C 367.585938 556.136719 365.847656 558.703125 364.148438 561.289062 C 363.804688 560.273438 363.355469 559.261719 362.867188 558.230469 C 360.90625 554.078125 358.691406 550.027344 356.648438 545.914062 C 352.707031 537.945312 348.859375 529.917969 345.613281 521.636719 C 339.089844 505.019531 334.488281 487.71875 328.785156 470.84375 C 328.777344 470.828125 328.75 470.828125 328.75 470.851562 C 329.277344 488.886719 333.839844 506.203125 339.496094 523.320312 C 342.375 532.027344 345.460938 540.667969 349.070312 549.101562 C 350.792969 553.125 352.609375 557.15625 354.652344 561.027344 C 355.960938 563.511719 357.476562 566.351562 359.964844 567.65625 C 359.625 568.179688 359.28125 568.699219 358.941406 569.222656 C 358.25 570.277344 357.558594 571.332031 356.867188 572.382812 C 353.253906 564.019531 348.070312 556.246094 343.976562 548.070312 Z M 377.144531 546.503906 C 377.210938 546.597656 377.285156 546.683594 377.367188 546.769531 C 377.199219 546.769531 377.027344 546.757812 376.871094 546.796875 C 376.8125 546.8125 376.765625 546.816406 376.710938 546.832031 C 376.867188 546.742188 377 546.621094 377.144531 546.503906 Z M 433.300781 552.550781 C 419.789062 557.25 406.273438 561.960938 392.773438 566.695312 C 385.851562 569.125 378.894531 571.488281 372.023438 574.0625 C 369.703125 574.929688 366.914062 575.78125 364.339844 576.941406 C 364.945312 576 365.546875 575.0625 366.152344 574.128906 C 367.902344 571.417969 369.652344 568.703125 371.40625 565.996094 C 373.101562 563.371094 374.761719 560.71875 376.417969 558.066406 C 377.25 556.730469 378.011719 555.390625 378.738281 553.988281 C 379.160156 553.183594 379.566406 552.378906 379.746094 551.480469 C 380 550.226562 379.605469 549.441406 379.441406 548.257812 C 379.410156 548.046875 379.300781 547.867188 379.191406 547.695312 C 379.480469 547.726562 379.789062 547.730469 380.113281 547.675781 C 386.746094 546.558594 392.914062 542.515625 398.933594 539.671875 C 405.097656 536.765625 411.355469 534.078125 417.683594 531.5625 C 430.738281 526.382812 444.136719 522.074219 457.757812 518.65625 C 471.3125 515.253906 485.101562 512.714844 498.988281 511.179688 C 505.808594 510.421875 512.648438 509.890625 519.5 509.574219 C 521.386719 509.492188 523.34375 509.503906 525.320312 509.535156 C 524.074219 511.46875 522.902344 513.449219 521.757812 515.410156 C 517.304688 515.105469 512.382812 515.855469 508.878906 516.152344 C 501.542969 516.773438 494.246094 517.824219 487.046875 519.347656 C 479.664062 520.914062 472.3125 522.902344 465.234375 525.554688 C 457.847656 528.3125 451.585938 532.300781 444.71875 536.0625 C 444.667969 536.089844 444.699219 536.179688 444.757812 536.15625 C 451.71875 533.53125 459.308594 532.097656 466.515625 530.1875 C 473.601562 528.308594 480.71875 526.648438 487.953125 525.460938 C 495.371094 524.242188 502.878906 523.476562 510.390625 523.171875 C 512.417969 523.089844 514.804688 523.21875 517.25 523.265625 C 517.144531 523.46875 517.039062 523.671875 516.9375 523.875 C 516.464844 523.867188 515.984375 523.875 515.441406 524.050781 C 487.875 532.914062 460.652344 543.042969 433.300781 552.550781 Z M 499.027344 325.113281 C 496.421875 335.363281 494.09375 345.679688 492.3125 356.105469 C 489.007812 375.429688 487.304688 395.203125 489.34375 414.765625 C 491.066406 431.28125 495.160156 447.480469 502.21875 462.542969 C 505.757812 470.105469 510.101562 477.238281 515.207031 483.847656 C 519.542969 489.464844 525.808594 498.503906 533.105469 500.21875 C 528.546875 500.082031 523.804688 500.59375 519.5 500.792969 C 512.320312 501.117188 505.15625 501.6875 498.011719 502.503906 C 483.664062 504.148438 469.433594 506.683594 455.421875 510.199219 C 441.484375 513.695312 427.78125 518.132812 414.441406 523.484375 C 408.027344 526.054688 401.707031 528.851562 395.484375 531.847656 C 389.628906 534.664062 382.980469 537.464844 378.320312 542.164062 C 376.117188 533.90625 371.371094 526.203125 368.035156 518.359375 C 364.445312 509.910156 361.230469 501.300781 358.339844 492.582031 C 352.546875 475.082031 348.136719 457.125 345.128906 438.933594 C 339.085938 402.433594 338.863281 364.859375 344.421875 328.289062 C 345.925781 318.382812 347.996094 308.621094 350 298.8125 C 351.703125 290.476562 354.238281 281.945312 355.214844 273.414062 C 355.277344 273.421875 355.324219 273.457031 355.386719 273.460938 C 368.445312 274.769531 381.738281 274.457031 394.847656 275.175781 C 408.285156 275.914062 421.71875 277.183594 435.039062 279.136719 C 447.710938 281 460.304688 283.433594 472.761719 286.421875 C 484.59375 289.269531 496.0625 293.253906 507.746094 296.5 C 503.476562 305.382812 501.433594 315.667969 499.027344 325.113281 Z M 499.027344 325.113281 " fill-opacity="1" fill-rule="nonzero"/></g><path fill="#feffde" d="M 458.65625 316.832031 C 455.234375 315.769531 451.78125 314.808594 448.300781 313.949219 C 440.96875 312.144531 433.523438 310.769531 426.023438 309.925781 C 418.398438 309.070312 410.71875 308.667969 403.046875 308.902344 C 397.511719 309.070312 390.632812 309.207031 385.148438 311.246094 C 385.289062 310.828125 385.417969 310.398438 385.625 309.996094 C 385.722656 309.761719 385.347656 309.546875 385.191406 309.746094 C 384.453125 310.863281 383.507812 311.78125 382.367188 312.503906 C 381.214844 313.171875 381.507812 314.871094 382.722656 315.257812 C 388.898438 317.195312 396.613281 316.3125 403.050781 316.515625 C 410.351562 316.746094 417.667969 317.253906 424.898438 318.269531 C 431.996094 319.273438 439.042969 320.574219 445.996094 322.335938 C 449.46875 323.214844 452.914062 324.195312 456.332031 325.28125 C 459.550781 326.300781 462.796875 328.035156 466.214844 327.773438 C 469.320312 327.535156 471.273438 323.816406 468.851562 321.414062 C 466.140625 318.726562 462.214844 317.9375 458.65625 316.832031 Z M 458.65625 316.832031 " fill-opacity="1" fill-rule="nonzero"/><path fill="#feffde" d="M 399.496094 363.203125 C 405.945312 363.914062 412.375 364.886719 418.734375 366.152344 C 425.023438 367.410156 431.25 368.972656 437.378906 370.84375 C 440.445312 371.78125 443.484375 372.792969 446.503906 373.878906 C 449.4375 374.9375 452.175781 376.328125 455.367188 376.21875 C 458.5 376.113281 460.148438 372.332031 457.925781 370.035156 C 455.46875 367.492188 452.09375 366.578125 448.835938 365.414062 C 445.8125 364.335938 442.769531 363.332031 439.703125 362.40625 C 433.34375 360.488281 426.886719 358.898438 420.367188 357.644531 C 413.914062 356.402344 407.414062 355.511719 400.863281 354.996094 C 394.753906 354.511719 387.722656 353.839844 382.101562 356.699219 C 380.882812 357.316406 380.910156 359.269531 382.101562 359.890625 C 387.320312 362.625 393.742188 362.574219 399.496094 363.203125 Z M 399.496094 363.203125 " fill-opacity="1" fill-rule="nonzero"/><path fill="#feffde" d="M 417.335938 407.878906 C 423.582031 407.804688 429.828125 407.722656 436.070312 407.648438 C 439.195312 407.609375 442.316406 407.578125 445.4375 407.535156 C 449.011719 407.484375 451.5625 407.164062 454.847656 405.789062 C 457.503906 404.675781 457.632812 401.308594 454.847656 400.234375 C 451.507812 398.941406 449.082031 398.683594 445.4375 398.742188 C 442.554688 398.785156 439.675781 398.839844 436.792969 398.886719 C 430.308594 398.992188 423.820312 399.105469 417.335938 399.210938 C 404.960938 399.417969 392.042969 398.582031 380.195312 402.644531 C 378.820312 403.117188 378.757812 405.058594 380.195312 405.507812 C 392.132812 409.222656 404.980469 408.027344 417.335938 407.878906 Z M 417.335938 407.878906 " fill-opacity="1" fill-rule="nonzero"/><path fill="#feffde" d="M 454.511719 441.601562 C 450.988281 441.78125 447.464844 442.125 443.957031 442.527344 C 437.425781 443.273438 430.925781 444.289062 424.492188 445.628906 C 418.011719 446.980469 411.59375 448.675781 405.292969 450.707031 C 400.878906 452.128906 391.199219 454.414062 390.121094 459.808594 C 389.988281 460.46875 390.222656 461.007812 390.761719 461.386719 C 394.90625 464.308594 403.289062 460.277344 407.574219 458.980469 C 413.703125 457.125 419.902344 455.539062 426.171875 454.21875 C 432.480469 452.890625 438.855469 451.851562 445.269531 451.167969 C 448.34375 450.839844 451.421875 450.609375 454.507812 450.398438 C 458.191406 450.140625 460.472656 449.574219 463.5625 447.585938 C 464.9375 446.703125 465.046875 444.628906 463.5625 443.773438 C 460.4375 441.957031 458.179688 441.410156 454.511719 441.601562 Z M 454.511719 441.601562 " fill-opacity="1" fill-rule="nonzero"/><path fill="#feffde" d="M 389.921875 210.441406 C 411.914062 213.398438 433.882812 214.636719 455.65625 219.308594 C 466.382812 221.609375 477.003906 224.445312 487.46875 227.746094 C 492.707031 229.398438 497.9375 231.058594 503.125 232.867188 C 508.402344 234.710938 513.09375 236.558594 518.742188 235.851562 C 520.3125 235.660156 521.035156 234.074219 519.996094 232.820312 C 513.460938 224.917969 500.195312 222.480469 490.710938 219.863281 C 479.453125 216.753906 468.019531 214.304688 456.492188 212.417969 C 434.847656 208.875 411.742188 206.253906 389.921875 209.480469 C 389.449219 209.550781 389.441406 210.378906 389.921875 210.441406 Z M 389.921875 210.441406 " fill-opacity="1" fill-rule="nonzero"/></svg>